<svg width="88" height="189" viewBox="0 0 88 189" fill="none" xmlns="http://www.w3.org/2000/svg">
<g clip-path="url(#clip0_202_11)">
<path d="M28.7838 84.3024C31.3738 82.7424 34.7438 83.5724 36.3038 86.1724C37.8638 88.7624 37.0338 92.1324 34.4338 93.6924C31.8438 95.2524 28.4738 94.4224 26.9138 91.8224C25.3538 89.2424 26.1938 85.8724 28.7838 84.3024Z" fill="#FCC9A7"/>
<path d="M34.9937 84.69C34.8137 84.55 25.1937 73.25 25.1937 73.25L21.2637 78.01L29.9437 89L34.9937 84.69Z" fill="#FCC9A7"/>
<path d="M26.8839 172.791L24.4338 183.981L16.6938 182.821L19.1938 171.781L26.8839 172.791Z" fill="#FCC9A7"/>
<path d="M61.5837 171.797L61.6738 183.257L53.8838 183.837L53.8638 172.517L61.5837 171.797Z" fill="#FCC9A7"/>
<path d="M25.4136 182.162C25.2536 181.692 24.6836 181.492 24.2736 181.792C23.4736 182.372 22.0636 183.052 20.0236 182.812C17.9036 182.562 17.1437 181.442 16.8837 180.642C16.7437 180.222 16.2937 180.002 15.8837 180.162L2.75367 185.422C1.95367 185.742 1.31365 186.362 0.983654 187.152C0.663654 187.892 1.20368 188.722 2.01368 188.722L24.3237 188.882C25.2037 188.892 25.9037 188.162 25.8637 187.282L25.6737 182.972C25.6737 182.902 25.6537 182.832 25.6337 182.762L25.4136 182.162Z" fill="#0C0C0C"/>
<path d="M53.0937 182.162C53.2537 181.692 53.8337 181.492 54.2337 181.792C55.0337 182.372 56.4437 183.052 58.4837 182.812C60.6037 182.562 61.3537 181.442 61.6237 180.642C61.7637 180.222 62.2137 180.002 62.6237 180.162L75.7537 185.422C76.5537 185.742 77.1937 186.362 77.5237 187.152C77.8437 187.892 77.3037 188.722 76.4937 188.722L54.1837 188.882C53.3037 188.892 52.6037 188.162 52.6437 187.282L52.8337 182.972C52.8337 182.902 52.8537 182.832 52.8737 182.762L53.0937 182.162Z" fill="#0C0C0C"/>
<path d="M52.9935 28.125L46.0635 28.725L35.0435 34.935V79.095H64.4535V34.935L52.9935 28.125Z" fill="#54585A"/>
<path d="M51.0935 32.5694H49.1035C47.0435 32.5694 45.3735 30.8994 45.3735 28.8394V21.3594H54.8135V28.8394C54.8235 30.8994 53.1535 32.5694 51.0935 32.5694Z" fill="#FCC9A7"/>
<path d="M45.3735 25.1694C45.3735 25.1694 46.8435 28.1194 50.1835 28.1194C53.5235 28.1194 54.8135 25.1094 54.8135 25.1094L45.3735 25.1694Z" fill="#F4BE9A"/>
<path d="M50.2034 26.3919H49.8934C45.0834 26.3919 41.1234 22.5919 40.9334 17.7819L40.7634 12.9919C40.5634 7.90187 44.6334 3.67188 49.7234 3.67188H50.3734C54.2234 3.67188 59.5334 7.90187 59.3334 12.9919L59.1634 17.7819C58.9734 22.5919 55.0134 26.3919 50.2034 26.3919Z" fill="#FCC9A7"/>
<path d="M43.6838 16.6264C43.7938 18.2464 42.5738 19.6464 40.9538 19.7564C39.3338 19.8664 37.9338 18.6464 37.8238 17.0264C37.7138 15.4064 38.9338 14.0064 40.5538 13.8964C42.1738 13.7964 43.5738 15.0164 43.6838 16.6264Z" fill="#FCC9A7"/>
<path d="M62.2639 16.6264C62.3739 18.2464 61.1539 19.6464 59.5339 19.7564C57.9139 19.8664 56.5139 18.6464 56.4039 17.0264C56.2939 15.4064 57.5139 14.0064 59.1339 13.8964C60.7539 13.7964 62.1539 15.0164 62.2639 16.6264Z" fill="#FCC9A7"/>
<path d="M35.0434 78.8828L16.7534 176.113L27.2634 176.013L54.0034 79.0728L35.0434 78.8828Z" fill="#0C0C0C"/>
<path d="M64.4537 79.0938L63.3036 176.214H52.1937L47.7637 79.7038L64.4537 79.0938Z" fill="#0C0C0C"/>
<path d="M35.0437 34.9297C35.0437 34.9297 10.4837 49.7497 4.51374 60.0297C3.34374 62.0397 4.86371 64.6397 6.92371 65.7097C9.20371 66.8997 12.0137 66.0897 13.3237 63.8797L36.0437 50.6997C36.0537 50.6997 35.0437 39.3797 35.0437 34.9297Z" fill="#54585A"/>
<path d="M40.2537 7.55322L40.9437 14.9132H42.0537L42.1937 11.0532C42.1937 11.0532 42.7737 9.57322 45.3637 6.39322C45.3637 6.39322 47.0537 10.7132 57.5237 9.87322L58.1337 14.7532L59.2137 14.6332L59.7837 9.39322C60.1637 7.62322 60.2937 5.97322 59.9737 4.19322C59.3237 0.59322 56.3937 -1.39678 47.9337 1.14322C48.6637 1.21322 47.2337 1.35322 47.9337 1.14322C45.5137 0.873221 39.1337 0.843221 40.2537 7.55322Z" fill="#2E2A33"/>
<path d="M52.7135 78.3955L50.3335 103.856C50.2435 104.816 50.8935 105.685 51.8435 105.865L81.0435 111.445C82.1135 111.655 83.1336 110.896 83.2536 109.816L85.9235 85.6155C86.0235 84.6755 85.4135 83.8055 84.4835 83.5855L54.9935 76.7455C53.8935 76.4855 52.8235 77.2655 52.7135 78.3955Z" fill="#AFAFAF"/>
<path d="M54.3336 78.8486L51.9536 104.309C51.8636 105.269 52.5136 106.139 53.4636 106.319L82.6636 111.899C83.7336 112.099 84.7536 111.349 84.8736 110.269L87.5436 86.0686C87.6436 85.1286 87.0336 84.2586 86.1036 84.0386L56.6136 77.1986C55.5236 76.9386 54.4436 77.7186 54.3336 78.8486Z" fill="#D1D1D1"/>
<path d="M69.5337 104.828C72.4337 105.688 74.0937 108.738 73.2337 111.638C72.3737 114.538 69.3237 116.198 66.4237 115.348C63.5237 114.488 61.8637 111.438 62.7137 108.538C63.5837 105.628 66.6237 103.968 69.5337 104.828Z" fill="#FCC9A7"/>
<path d="M73.4435 109.67C73.4235 109.44 72.4835 94.1797 72.4835 94.1797L67.2935 95.1197L67.9835 108.13L73.4435 109.67Z" fill="#FCC9A7"/>
<path d="M64.4537 34.9297C64.4537 34.9297 72.3137 40.5597 72.8137 48.5797L75.2736 67.3297C75.4136 68.4297 75.4737 69.5297 75.4337 70.6397L74.4836 99.1597H63.6937L63.4937 68.2897L64.4537 34.9297Z" fill="#54585A"/>
<path d="M46.8934 28.125C46.0534 28.735 42.0034 31.015 42.0034 31.015C42.0034 31.015 42.1134 36.715 50.6934 36.255C58.2434 35.855 58.1934 31.225 58.1934 31.225L52.9834 28.125H46.8934Z" fill="#FCC9A7"/>
<path d="M16.6137 56.3359L31.2937 79.7959L24.3337 86.3859L4.55371 63.2959L16.6137 56.3359Z" fill="#54585A"/>
<path d="M63.4835 78.7828V68.2828L61.0435 49.1328" stroke="#424647" stroke-width="0.7693" stroke-miterlimit="10" stroke-linecap="round" stroke-linejoin="round"/>
</g>
<defs>
<clipPath id="clip0_202_11">
<rect width="88" height="189" fill="white"/>
</clipPath>
</defs>
</svg>
