<svg width="639" height="324" viewBox="0 0 639 324" fill="none" xmlns="http://www.w3.org/2000/svg">
<path d="M629.5 323.3H9.2002C4.2002 323.3 0.200195 319.3 0.200195 314.3C0.200195 309.3 4.2002 305.3 9.2002 305.3H629.5C634.5 305.3 638.5 309.3 638.5 314.3C638.5 319.3 634.5 323.3 629.5 323.3Z" fill="#C9C9C9"/>
<path d="M125.9 230.3C116.3 230.3 108.6 222.5 108.6 213C108.6 203.5 116.4 195.7 125.9 195.7H223.9V230.4H125.9V230.3Z" fill="#CECECE"/>
<path d="M229.6 236.3H125.9C113 236.3 102.6 225.8 102.6 213C102.6 200.1 113.1 189.7 125.9 189.7H229.6V236.3Z" fill="white"/>
<path d="M119.5 207.6H223.9" stroke="#1F3969" stroke-width="4" stroke-miterlimit="10" stroke-linecap="round" stroke-linejoin="round"/>
<path d="M119.5 218.2H223.9" stroke="#1F3969" stroke-width="4" stroke-miterlimit="10" stroke-linecap="round" stroke-linejoin="round"/>
<path d="M125.9 230.3C116.3 230.3 108.6 222.5 108.6 213C108.6 203.5 116.4 195.7 125.9 195.7H223.9V230.4H125.9V230.3Z" stroke="#1F3969" stroke-width="4" stroke-miterlimit="10" stroke-linecap="round" stroke-linejoin="round"/>
<path d="M125.9 230.3C116.3 230.3 108.6 222.5 108.6 213C108.6 203.5 116.4 195.7 125.9 195.7H225.6L229.6 189.7H125.9C113 189.7 102.6 200.2 102.6 213C102.6 225.9 113.1 236.3 125.9 236.3H229.6L225.6 230.3H125.9Z" fill="#FF3E3E"/>
<path d="M125.9 230.3C116.3 230.3 108.6 222.5 108.6 213C108.6 203.5 116.4 195.7 125.9 195.7H225.6L229.6 189.7H125.9C113 189.7 102.6 200.2 102.6 213C102.6 225.9 113.1 236.3 125.9 236.3H229.6L225.6 230.3H125.9Z" stroke="#1F3969" stroke-width="4" stroke-miterlimit="10" stroke-linecap="round" stroke-linejoin="round"/>
<path opacity="0.28" d="M207.3 189.6H188.9V236.3H207.3V189.6Z" fill="#1F3969" stroke="#1F3969" stroke-width="4" stroke-miterlimit="10" stroke-linecap="round" stroke-linejoin="round"/>
<path d="M218.9 274.8H29.0002C25.3002 274.8 22.2002 271.8 22.2002 268V243C22.2002 239.3 25.2002 236.2 29.0002 236.2H218.9C222.6 236.2 225.7 239.2 225.7 243V268C225.7 271.8 222.7 274.8 218.9 274.8Z" fill="#50B56F"/>
<path d="M80.3 256.8H77.7V262.3H76V249H80.3C83.4 249 84.9 250.701 84.9 252.901C84.9 254.901 83.6 256.8 80.3 256.8ZM80.3 255.3C82.3 255.3 83.1 254.401 83.1 252.901C83.1 251.401 82.3 250.401 80.3 250.401H77.7V255.3H80.3Z" fill="white"/>
<path d="M89.7002 249H91.6002L94.9002 255.701L98.2002 249H100.1L95.8002 257.3V262.3H94.1002V257.3L89.7002 249Z" fill="white"/>
<path d="M104.9 249H113.9V250.401H110.3V262.3H108.6V250.401H105V249H104.9Z" fill="white"/>
<path d="M128.4 256.3H121.6V262.3H119.9V249H121.6V254.8H128.4V249H130.1V262.3H128.4V256.3Z" fill="white"/>
<path d="M142.9 262.4C139.2 262.4 136.2 259.6 136.2 255.6C136.2 251.6 139.1 248.8 142.9 248.8C146.7 248.8 149.6 251.6 149.6 255.6C149.5 259.6 146.6 262.4 142.9 262.4ZM142.9 260.9C145.7 260.9 147.8 258.9 147.8 255.6C147.8 252.3 145.7 250.3 142.9 250.3C140.1 250.3 138 252.3 138 255.6C138 258.9 140.1 260.9 142.9 260.9Z" fill="white"/>
<path d="M166.1 249V262.3H164.4L157.4 251.701V262.3H155.7V249H157.4L164.4 259.5V249H166.1Z" fill="white"/>
<path d="M218.9 274.8H29.0002C25.3002 274.8 22.2002 271.8 22.2002 268V243C22.2002 239.3 25.2002 236.2 29.0002 236.2H218.9C222.6 236.2 225.7 239.2 225.7 243V268C225.7 271.8 222.7 274.8 218.9 274.8Z" stroke="#1F3969" stroke-width="4" stroke-miterlimit="10" stroke-linecap="round" stroke-linejoin="round"/>
<path opacity="0.28" d="M218.9 236.3H188.9V251.3C188.9 260.7 196.5 268.4 206 268.4H225.7C225.7 268.3 225.7 268.2 225.7 268.1V243.1C225.7 239.3 222.7 236.3 218.9 236.3Z" fill="#1F3969" stroke="#1F3969" stroke-width="4" stroke-miterlimit="10" stroke-linecap="round" stroke-linejoin="round"/>
<path d="M272.4 282.6H52.4004C53.7004 285.8 54.4004 289.8 54.4004 294C54.4004 298.2 53.7004 302.1 52.4004 305.4H272.3C271 302.2 270.3 298.2 270.3 294C270.4 289.7 271.1 285.8 272.4 282.6Z" fill="#CECECE"/>
<path d="M278.4 276.5H46.5V282.5H278.4V276.5Z" fill="#5F5AFF"/>
<path d="M278.4 276.5H46.5V282.5H278.4V276.5Z" stroke="#1F3969" stroke-width="4" stroke-miterlimit="10" stroke-linecap="round" stroke-linejoin="round"/>
<path d="M278.4 305.3H46.5V311.3H278.4V305.3Z" fill="#F6F9FD"/>
<path d="M278.4 305.3H46.5V311.3H278.4V305.3Z" fill="#5F5AFF"/>
<path d="M278.4 305.3H46.5V311.3H278.4V305.3Z" stroke="#1F3969" stroke-width="4" stroke-miterlimit="10" stroke-linecap="round" stroke-linejoin="round"/>
<path d="M393.6 290L390.6 256.3H341.2L338.2 290C337.5 297.8 332.8 305.3 325.4 311.3V311.4H406.4V311.3C399 305.3 394.3 297.8 393.6 290Z" fill="#BFCFE2"/>
<path opacity="0.28" d="M341.2 256.3L339.4 276.5H392.4L390.6 256.3H341.2Z" fill="#1F3969" stroke="#1F3969" stroke-width="4" stroke-miterlimit="10" stroke-linecap="round" stroke-linejoin="round"/>
<path d="M393.6 290L390.6 256.3H341.2L338.2 290C337.5 297.8 332.8 305.3 325.4 311.3V311.4H406.4V311.3C399 305.3 394.3 297.8 393.6 290Z" stroke="#1F3969" stroke-width="4" stroke-miterlimit="10" stroke-linecap="round" stroke-linejoin="round"/>
<path d="M523.9 261.3H207.9C201.3 261.3 195.9 255.9 195.9 249.3V43.3003C195.9 36.7003 201.3 31.3003 207.9 31.3003H523.9C530.5 31.3003 535.9 36.7003 535.9 43.3003V249.3C535.9 256 530.5 261.3 523.9 261.3Z" fill="white"/>
<path d="M523.9 261.3H207.9C201.3 261.3 195.9 255.9 195.9 249.3V43.3003C195.9 36.7003 201.3 31.3003 207.9 31.3003H523.9C530.5 31.3003 535.9 36.7003 535.9 43.3003V249.3C535.9 256 530.5 261.3 523.9 261.3Z" fill="#BFCFE2"/>
<path d="M523.9 261.3H207.9C201.3 261.3 195.9 255.9 195.9 249.3V43.3003C195.9 36.7003 201.3 31.3003 207.9 31.3003H523.9C530.5 31.3003 535.9 36.7003 535.9 43.3003V249.3C535.9 256 530.5 261.3 523.9 261.3Z" stroke="#1F3969" stroke-width="4" stroke-miterlimit="10" stroke-linecap="round" stroke-linejoin="round"/>
<path d="M518.956 222.928V48.3281H212.956V222.928H518.956Z" fill="#F6F9FD"/>
<path opacity="0.28" d="M223.9 31.3003V169.9C223.9 174.3 227.5 177.9 231.9 177.9H421C425.4 177.9 429 174.3 429 169.9V31.3003H223.9Z" fill="#1F3969" stroke="#1F3969" stroke-width="4" stroke-miterlimit="10" stroke-linecap="round" stroke-linejoin="round"/>
<path d="M518.956 222.928V48.3281H212.956V222.928H518.956Z" stroke="#1F3969" stroke-width="4" stroke-miterlimit="10" stroke-linecap="round" stroke-linejoin="round"/>
<path d="M352.5 242H379.4" stroke="#1F3969" stroke-width="4" stroke-miterlimit="10" stroke-linecap="round" stroke-linejoin="round"/>
<path d="M430 166.9H240.9C236.5 166.9 232.9 163.3 232.9 158.9V10.7002C232.9 6.3002 236.5 2.7002 240.9 2.7002H430C434.4 2.7002 438 6.3002 438 10.7002V159C438 163.4 434.4 166.9 430 166.9Z" fill="#2D425E"/>
<path d="M438 22.1001H232.9V10.6001C232.9 6.2001 236.5 2.6001 240.9 2.6001H430C434.4 2.6001 438 6.2001 438 10.6001V22.1001Z" stroke="#1F3969" stroke-width="4" stroke-miterlimit="10" stroke-linecap="round" stroke-linejoin="round"/>
<path d="M438 25.9001H232.9V10.6001C232.9 6.2001 236.5 2.6001 240.9 2.6001H430C434.4 2.6001 438 6.2001 438 10.6001V25.9001Z" fill="#D0DDF0"/>
<path d="M438 25.9001H232.9V10.6001C232.9 6.2001 236.5 2.6001 240.9 2.6001H430C434.4 2.6001 438 6.2001 438 10.6001V25.9001Z" stroke="#1F3969" stroke-width="4" stroke-miterlimit="10" stroke-linecap="round" stroke-linejoin="round"/>
<path d="M438 25.9001H232.9V10.6001C232.9 6.2001 236.5 2.6001 240.9 2.6001H430C434.4 2.6001 438 6.2001 438 10.6001V25.9001Z" stroke="#1F3969" stroke-width="4" stroke-miterlimit="10" stroke-linecap="round" stroke-linejoin="round"/>
<path d="M430 166.9H240.9C236.5 166.9 232.9 163.3 232.9 158.9V10.7002C232.9 6.3002 236.5 2.7002 240.9 2.7002H430C434.4 2.7002 438 6.3002 438 10.7002V159C438 163.4 434.4 166.9 430 166.9Z" stroke="#1F3969" stroke-width="4" stroke-miterlimit="10" stroke-linecap="round" stroke-linejoin="round"/>
<path opacity="0.28" d="M528.7 202.3H412.7C408.3 202.3 404.7 198.7 404.7 194.3V71.3999C404.7 66.9999 408.3 63.3999 412.7 63.3999H528.7C533.1 63.3999 536.7 66.9999 536.7 71.3999V194.3C536.7 198.8 533.1 202.3 528.7 202.3Z" fill="#1F3969" stroke="#1F3969" stroke-width="4" stroke-miterlimit="10" stroke-linecap="round" stroke-linejoin="round"/>
<path d="M536.7 195.3H420.7C416.3 195.3 412.7 191.7 412.7 187.3V64.3999C412.7 59.9999 416.3 56.3999 420.7 56.3999H536.7C541.1 56.3999 544.7 59.9999 544.7 64.3999V187.3C544.7 191.8 541.1 195.3 536.7 195.3Z" fill="#2AA1FF"/>
<path d="M536.7 195.3H420.7C416.3 195.3 412.7 191.7 412.7 187.3V64.3999C412.7 59.9999 416.3 56.3999 420.7 56.3999H536.7C541.1 56.3999 544.7 59.9999 544.7 64.3999V187.3C544.7 191.8 541.1 195.3 536.7 195.3Z" stroke="#1F3969" stroke-width="4" stroke-miterlimit="10" stroke-linecap="round" stroke-linejoin="round"/>
<path opacity="0.34" d="M519.4 94.4998H437.8C434.9 94.4998 432.6 92.1998 432.6 89.2998V81.4998C432.6 78.5998 434.9 76.2998 437.8 76.2998H519.4C522.3 76.2998 524.6 78.5998 524.6 81.4998V89.2998C524.6 92.1998 522.3 94.4998 519.4 94.4998Z" stroke="white" stroke-width="2" stroke-miterlimit="10" stroke-linecap="round" stroke-linejoin="round"/>
<g opacity="0.34">
<path opacity="0.34" d="M483.6 123.8H438C435.1 123.8 432.8 121.5 432.8 118.6V110.8C432.8 107.9 435.1 105.6 438 105.6H483.6C486.5 105.6 488.8 107.9 488.8 110.8V118.6C488.7 121.5 486.4 123.8 483.6 123.8Z" stroke="white" stroke-width="2" stroke-miterlimit="10" stroke-linecap="round" stroke-linejoin="round"/>
<path opacity="0.34" d="M519.5 123.8H501.8C498.9 123.8 496.6 121.5 496.6 118.6V110.8C496.6 107.9 498.9 105.6 501.8 105.6H519.5C522.4 105.6 524.7 107.9 524.7 110.8V118.6C524.7 121.5 522.4 123.8 519.5 123.8Z" stroke="white" stroke-width="2" stroke-miterlimit="10" stroke-linecap="round" stroke-linejoin="round"/>
</g>
<path d="M432.7 154.2H524.6" stroke="white" stroke-width="2" stroke-miterlimit="10" stroke-linecap="round" stroke-linejoin="round"/>
<path d="M432.7 165H524.6" stroke="white" stroke-width="2" stroke-miterlimit="10" stroke-linecap="round" stroke-linejoin="round"/>
<path d="M432.7 175.8H488.7" stroke="white" stroke-width="2" stroke-miterlimit="10" stroke-linecap="round" stroke-linejoin="round"/>
<path d="M253 18.3003C255.209 18.3003 257 16.5093 257 14.3003C257 12.0913 255.209 10.3003 253 10.3003C250.791 10.3003 249 12.0913 249 14.3003C249 16.5093 250.791 18.3003 253 18.3003Z" fill="#1F3969"/>
<path d="M266.9 18.3003C269.109 18.3003 270.9 16.5093 270.9 14.3003C270.9 12.0913 269.109 10.3003 266.9 10.3003C264.691 10.3003 262.9 12.0913 262.9 14.3003C262.9 16.5093 264.691 18.3003 266.9 18.3003Z" fill="#1F3969"/>
<path d="M280.8 18.3003C283.009 18.3003 284.8 16.5093 284.8 14.3003C284.8 12.0913 283.009 10.3003 280.8 10.3003C278.591 10.3003 276.8 12.0913 276.8 14.3003C276.8 16.5093 278.591 18.3003 280.8 18.3003Z" fill="#1F3969"/>
<path d="M350.7 44.3999H363.7" stroke="white" stroke-width="4" stroke-miterlimit="10" stroke-linecap="round" stroke-linejoin="round"/>
<path d="M284.8 44.3999H341.1" stroke="#7BFFA0" stroke-width="4" stroke-miterlimit="10" stroke-linecap="round" stroke-linejoin="round"/>
<path d="M257 44.3999H276.8" stroke="#9169FF" stroke-width="4" stroke-miterlimit="10" stroke-linecap="round" stroke-linejoin="round"/>
<path d="M282.8 142.9H325.8" stroke="#9169FF" stroke-width="4" stroke-miterlimit="10" stroke-linecap="round" stroke-linejoin="round"/>
<path d="M257 142.9H270.9" stroke="#7BFFA0" stroke-width="4" stroke-miterlimit="10" stroke-linecap="round" stroke-linejoin="round"/>
<path d="M341.101 56.7002H349.201" stroke="white" stroke-width="4" stroke-miterlimit="10" stroke-linecap="round" stroke-linejoin="round"/>
<path d="M304.3 56.7002H331.5" stroke="#9169FF" stroke-width="4" stroke-miterlimit="10" stroke-linecap="round" stroke-linejoin="round"/>
<path d="M266.9 56.7002H294.6" stroke="#FFC47D" stroke-width="4" stroke-miterlimit="10" stroke-linecap="round" stroke-linejoin="round"/>
<path d="M309.8 69H333.7" stroke="white" stroke-width="4" stroke-miterlimit="10" stroke-linecap="round" stroke-linejoin="round"/>
<path d="M279.8 69H302.3" stroke="#FF5757" stroke-width="4" stroke-miterlimit="10" stroke-linecap="round" stroke-linejoin="round"/>
<path d="M313 81.3003H317.9" stroke="white" stroke-width="4" stroke-miterlimit="10" stroke-linecap="round" stroke-linejoin="round"/>
<path d="M293.2 81.3003H304.3" stroke="#9169FF" stroke-width="4" stroke-miterlimit="10" stroke-linecap="round" stroke-linejoin="round"/>
<path d="M266.9 81.3003H284.8" stroke="#7BFFA0" stroke-width="4" stroke-miterlimit="10" stroke-linecap="round" stroke-linejoin="round"/>
<path d="M305.3 93.7002H337.2" stroke="#FFC47D" stroke-width="4" stroke-miterlimit="10" stroke-linecap="round" stroke-linejoin="round"/>
<path d="M266.9 93.7002H295.5" stroke="#FF5757" stroke-width="4" stroke-miterlimit="10" stroke-linecap="round" stroke-linejoin="round"/>
<path d="M342.2 106H359.5" stroke="#9169FF" stroke-width="4" stroke-miterlimit="10" stroke-linecap="round" stroke-linejoin="round"/>
<path d="M305.3 106H333" stroke="#FF5757" stroke-width="4" stroke-miterlimit="10" stroke-linecap="round" stroke-linejoin="round"/>
<path d="M279.8 106H295.5" stroke="#7BFFA0" stroke-width="4" stroke-miterlimit="10" stroke-linecap="round" stroke-linejoin="round"/>
<path d="M317.9 118.3H333" stroke="white" stroke-width="4" stroke-miterlimit="10" stroke-linecap="round" stroke-linejoin="round"/>
<path d="M279.8 118.3H307.5" stroke="#9169FF" stroke-width="4" stroke-miterlimit="10" stroke-linecap="round" stroke-linejoin="round"/>
<path d="M357.2 130.6H374.5" stroke="white" stroke-width="4" stroke-miterlimit="10" stroke-linecap="round" stroke-linejoin="round"/>
<path d="M304.3 130.6H347.8" stroke="#FFC47D" stroke-width="4" stroke-miterlimit="10" stroke-linecap="round" stroke-linejoin="round"/>
<path d="M266.9 130.6H294.6" stroke="white" stroke-width="4" stroke-miterlimit="10" stroke-linecap="round" stroke-linejoin="round"/>
<path d="M54.9004 289.5H270.4" stroke="#1F3969" stroke-width="4" stroke-miterlimit="10" stroke-linecap="round" stroke-linejoin="round"/>
<path d="M54.9004 297.5H270.4" stroke="#1F3969" stroke-width="4" stroke-miterlimit="10" stroke-linecap="round" stroke-linejoin="round"/>
<path d="M272.4 282.6H52.4004C53.7004 285.8 54.4004 289.8 54.4004 294C54.4004 298.2 53.7004 302.1 52.4004 305.4H272.3C271 302.2 270.3 298.2 270.3 294C270.4 289.7 271.1 285.8 272.4 282.6Z" stroke="#1F3969" stroke-width="4" stroke-miterlimit="10" stroke-linecap="round" stroke-linejoin="round"/>
<path d="M568.349 201.071L558.616 202.214L567.081 274.32L576.814 273.177L568.349 201.071Z" fill="#FFA364"/>
<path d="M568.362 201.148L558.629 202.291L559.492 209.64L569.225 208.497L568.362 201.148Z" fill="#2AA1FF"/>
<path d="M568.362 201.148L558.629 202.291L559.492 209.64L569.225 208.497L568.362 201.148Z" stroke="#1F3969" stroke-width="4" stroke-miterlimit="10" stroke-linecap="round" stroke-linejoin="round"/>
<path d="M568.349 201.071L558.616 202.214L567.081 274.32L576.814 273.177L568.349 201.071Z" stroke="#1F3969" stroke-width="4" stroke-miterlimit="10" stroke-linecap="round" stroke-linejoin="round"/>
<path d="M595.039 215.841L585.297 214.782L577.449 286.953L587.191 288.013L595.039 215.841Z" fill="#FF5252"/>
<path d="M595.039 215.841L585.297 214.782L577.449 286.953L587.191 288.013L595.039 215.841Z" stroke="#1F3969" stroke-width="4" stroke-miterlimit="10" stroke-linecap="round" stroke-linejoin="round"/>
<path d="M595.111 215.858L585.369 214.799L584.569 222.155L594.311 223.215L595.111 215.858Z" fill="#2D425E"/>
<path d="M595.111 215.858L585.369 214.799L584.569 222.155L594.311 223.215L595.111 215.858Z" stroke="#1F3969" stroke-width="4" stroke-miterlimit="10" stroke-linecap="round" stroke-linejoin="round"/>
<path d="M601.1 311.6H561.8L555.4 251.4H607.5L601.1 311.6Z" fill="#6567C3"/>
<path d="M555.4 251.4L555.5 252.5H595.2L588.9 311.6H601.1L607.5 251.4H555.4Z" fill="#6567C3"/>
<path d="M601.1 311.6H561.8L555.4 251.4H607.5L601.1 311.6Z" stroke="#1F3969" stroke-width="4" stroke-miterlimit="10" stroke-linecap="round" stroke-linejoin="round"/>
</svg>
